<svg width="90" height="89" viewBox="0 0 90 89" fill="none" xmlns="http://www.w3.org/2000/svg">
<path fill-rule="evenodd" clip-rule="evenodd" d="M26.6539 0.267C31.3992 0.0485454 32.9122 0 45 0C57.0878 0 58.6008 0.0525909 63.3421 0.267C68.0834 0.481409 71.3197 1.23791 74.1515 2.33423C77.1169 3.45482 79.8071 5.2065 82.0321 7.47195C84.2975 9.69291 86.0452 12.3791 87.1617 15.3485C88.2621 18.1803 89.0145 21.4166 89.233 26.1498C89.4515 30.9032 89.5 32.4162 89.5 44.5C89.5 56.5878 89.4474 58.1008 89.233 62.8461C89.0186 67.5793 88.2621 70.8157 87.1617 73.6475C86.0452 76.6172 84.2946 79.3079 82.0321 81.5321C79.8071 83.7975 77.1169 85.5452 74.1515 86.6617C71.3197 87.7621 68.0834 88.5145 63.3502 88.733C58.6008 88.9515 57.0878 89 45 89C32.9122 89 31.3992 88.9474 26.6539 88.733C21.9207 88.5186 18.6843 87.7621 15.8525 86.6617C12.8828 85.545 10.1922 83.7945 7.96791 81.5321C5.70399 79.3098 3.95205 76.6204 2.83423 73.6515C1.73791 70.8197 0.985454 67.5834 0.767 62.8502C0.548545 58.0968 0.5 56.5838 0.5 44.5C0.5 32.4122 0.552591 30.8992 0.767 26.1579C0.981409 21.4166 1.73791 18.1803 2.83423 15.3485C3.9537 12.3794 5.70698 9.69013 7.97195 7.46791C10.1931 5.20448 12.881 3.45257 15.8485 2.33423C18.6803 1.23791 21.9166 0.485454 26.6498 0.267H26.6539ZM62.982 8.277C58.2893 8.06259 56.8815 8.01809 45 8.01809C33.1185 8.01809 31.7107 8.06259 27.018 8.277C22.6772 8.47523 20.3227 9.19936 18.7531 9.81023C16.6778 10.6193 15.1931 11.5781 13.6356 13.1356C12.1592 14.5719 11.023 16.3205 10.3102 18.2531C9.69936 19.8227 8.97523 22.1772 8.777 26.518C8.56259 31.2107 8.51809 32.6185 8.51809 44.5C8.51809 56.3815 8.56259 57.7893 8.777 62.482C8.97523 66.8228 9.69936 69.1773 10.3102 70.7469C11.0222 72.6766 12.159 74.4283 13.6356 75.8644C15.0717 77.341 16.8234 78.4778 18.7531 79.1898C20.3227 79.8006 22.6772 80.5248 27.018 80.723C31.7107 80.9374 33.1145 80.9819 45 80.9819C56.8855 80.9819 58.2893 80.9374 62.982 80.723C67.3228 80.5248 69.6773 79.8006 71.2469 79.1898C73.3222 78.3807 74.8069 77.4219 76.3644 75.8644C77.841 74.4283 78.9778 72.6766 79.6898 70.7469C80.3006 69.1773 81.0248 66.8228 81.223 62.482C81.4374 57.7893 81.4819 56.3815 81.4819 44.5C81.4819 32.6185 81.4374 31.2107 81.223 26.518C81.0248 22.1772 80.3006 19.8227 79.6898 18.2531C78.8807 16.1778 77.9219 14.6931 76.3644 13.1356C74.928 11.6593 73.1794 10.5231 71.2469 9.81023C69.6773 9.19936 67.3228 8.47523 62.982 8.277ZM39.3161 58.2181C42.4904 59.5395 46.025 59.7178 49.3162 58.7227C52.6074 57.7275 55.451 55.6206 57.3613 52.7618C59.2717 49.903 60.1302 46.4696 59.7904 43.0481C59.4505 39.6266 57.9333 36.4292 55.498 34.002C53.9455 32.4505 52.0683 31.2625 50.0015 30.5235C47.9348 29.7846 45.7299 29.513 43.5456 29.7285C41.3614 29.9439 39.252 30.641 37.3695 31.7695C35.4869 32.898 33.878 34.4298 32.6585 36.2548C31.4391 38.0797 30.6394 40.1523 30.3171 42.3234C29.9948 44.4945 30.1578 46.71 30.7945 48.8105C31.4313 50.911 32.5258 52.8442 33.9993 54.4709C35.4728 56.0976 37.2887 57.3774 39.3161 58.2181ZM28.8263 28.3263C30.9502 26.2023 33.4717 24.5175 36.2468 23.368C39.0219 22.2185 41.9963 21.6269 45 21.6269C48.0037 21.6269 50.9781 22.2185 53.7532 23.368C56.5283 24.5175 59.0498 26.2023 61.1737 28.3263C63.2977 30.4502 64.9825 32.9717 66.132 35.7468C67.2815 38.5219 67.8731 41.4963 67.8731 44.5C67.8731 47.5037 67.2815 50.4781 66.132 53.2532C64.9825 56.0283 63.2977 58.5498 61.1737 60.6737C56.8842 64.9633 51.0663 67.3731 45 67.3731C38.9337 67.3731 33.1158 64.9633 28.8263 60.6737C24.5367 56.3842 22.1269 50.5663 22.1269 44.5C22.1269 38.4337 24.5367 32.6158 28.8263 28.3263ZM72.946 25.0333C73.4723 24.5368 73.8937 23.9397 74.1851 23.2774C74.4766 22.6152 74.6322 21.9012 74.6427 21.1777C74.6533 20.4542 74.5186 19.7359 74.2465 19.0655C73.9745 18.395 73.5707 17.7859 73.0591 17.2742C72.5475 16.7626 71.9384 16.3588 71.2679 16.0868C70.5974 15.8148 69.8792 15.6801 69.1557 15.6906C68.4322 15.7012 67.7182 15.8568 67.0559 16.1482C66.3937 16.4397 65.7966 16.861 65.3001 17.3874C64.3345 18.411 63.8058 19.7706 63.8263 21.1777C63.8469 22.5847 64.4149 23.9284 65.41 24.9234C66.405 25.9184 67.7486 26.4865 69.1557 26.507C70.5627 26.5275 71.9224 25.9989 72.946 25.0333Z" fill="white"/>
</svg>
