<svg width="183" height="241" viewBox="0 0 183 241" fill="none" xmlns="http://www.w3.org/2000/svg">
<rect width="183" height="75" rx="37.5" fill="url(#paint0_linear_3_12)"/>
<path d="M50.448 33.896V38.936H55.44V33.896H59.016V47H55.44V41.6H50.448V47H46.872V33.896H50.448ZM74.6666 40.424C74.6666 41.512 74.5146 42.48 74.2106 43.328C73.9226 44.176 73.4986 44.896 72.9386 45.488C72.3946 46.064 71.7306 46.504 70.9466 46.808C70.1626 47.096 69.2746 47.24 68.2826 47.24C67.3706 47.24 66.5226 47.096 65.7386 46.808C64.9706 46.504 64.3066 46.064 63.7466 45.488C63.1866 44.896 62.7466 44.176 62.4266 43.328C62.1226 42.48 61.9706 41.512 61.9706 40.424C61.9706 38.968 62.2266 37.744 62.7386 36.752C63.2506 35.744 63.9866 34.976 64.9466 34.448C65.9066 33.92 67.0426 33.656 68.3546 33.656C69.5866 33.656 70.6746 33.92 71.6186 34.448C72.5626 34.976 73.3066 35.744 73.8506 36.752C74.3946 37.744 74.6666 38.968 74.6666 40.424ZM65.6186 40.424C65.6186 41.288 65.7066 42.016 65.8826 42.608C66.0746 43.184 66.3706 43.624 66.7706 43.928C67.1706 44.216 67.6906 44.36 68.3306 44.36C68.9706 44.36 69.4826 44.216 69.8666 43.928C70.2666 43.624 70.5546 43.184 70.7306 42.608C70.9226 42.016 71.0186 41.288 71.0186 40.424C71.0186 39.56 70.9226 38.84 70.7306 38.264C70.5546 37.688 70.2666 37.256 69.8666 36.968C69.4666 36.68 68.9466 36.536 68.3066 36.536C67.3626 36.536 66.6746 36.864 66.2426 37.52C65.8266 38.16 65.6186 39.128 65.6186 40.424ZM80.5316 38.696C80.5316 39.256 80.6676 39.68 80.9396 39.968C81.2276 40.256 81.6196 40.4 82.1156 40.4C82.8036 40.4 83.4436 40.328 84.0356 40.184C84.6276 40.024 85.2196 39.816 85.8116 39.56V33.896H89.3876V47H85.8116V41.792C85.2516 42.096 84.6116 42.376 83.8916 42.632C83.1716 42.872 82.3556 42.992 81.4436 42.992C80.0836 42.992 78.9956 42.64 78.1796 41.936C77.3636 41.232 76.9556 40.176 76.9556 38.768V33.896H80.5316V38.696ZM96.7136 33.896V38.936H101.706V33.896H105.282V47H101.706V41.6H96.7136V47H93.1376V33.896H96.7136ZM120.932 40.424C120.932 41.512 120.78 42.48 120.476 43.328C120.188 44.176 119.764 44.896 119.204 45.488C118.66 46.064 117.996 46.504 117.212 46.808C116.428 47.096 115.54 47.24 114.548 47.24C113.636 47.24 112.788 47.096 112.004 46.808C111.236 46.504 110.572 46.064 110.012 45.488C109.452 44.896 109.012 44.176 108.692 43.328C108.388 42.48 108.236 41.512 108.236 40.424C108.236 38.968 108.492 37.744 109.004 36.752C109.516 35.744 110.252 34.976 111.212 34.448C112.172 33.92 113.308 33.656 114.62 33.656C115.852 33.656 116.94 33.92 117.884 34.448C118.828 34.976 119.572 35.744 120.116 36.752C120.66 37.744 120.932 38.968 120.932 40.424ZM111.884 40.424C111.884 41.288 111.972 42.016 112.148 42.608C112.34 43.184 112.636 43.624 113.036 43.928C113.436 44.216 113.956 44.36 114.596 44.36C115.236 44.36 115.748 44.216 116.132 43.928C116.532 43.624 116.82 43.184 116.996 42.608C117.188 42.016 117.284 41.288 117.284 40.424C117.284 39.56 117.188 38.84 116.996 38.264C116.82 37.688 116.532 37.256 116.132 36.968C115.732 36.68 115.212 36.536 114.572 36.536C113.628 36.536 112.94 36.864 112.508 37.52C112.092 38.16 111.884 39.128 111.884 40.424ZM129.288 33.656C130.504 33.656 131.544 33.888 132.408 34.352C133.288 34.816 133.968 35.488 134.448 36.368C134.928 37.248 135.168 38.328 135.168 39.608V41.336H126.72C126.752 42.344 127.048 43.136 127.608 43.712C128.184 44.288 128.976 44.576 129.984 44.576C130.832 44.576 131.6 44.496 132.288 44.336C132.976 44.16 133.688 43.896 134.424 43.544V46.304C133.784 46.624 133.104 46.856 132.384 47C131.68 47.16 130.824 47.24 129.816 47.24C128.504 47.24 127.344 47 126.336 46.52C125.328 46.024 124.536 45.28 123.96 44.288C123.384 43.296 123.096 42.048 123.096 40.544C123.096 39.008 123.352 37.736 123.864 36.728C124.392 35.704 125.12 34.936 126.048 34.424C126.976 33.912 128.056 33.656 129.288 33.656ZM129.312 36.2C128.624 36.2 128.048 36.424 127.584 36.872C127.136 37.32 126.872 38.016 126.792 38.96H131.808C131.808 38.432 131.712 37.96 131.52 37.544C131.344 37.128 131.072 36.8 130.704 36.56C130.336 36.32 129.872 36.2 129.312 36.2Z" fill="white"/>
<rect y="58" width="183" height="183" rx="91.5" fill="url(#paint1_linear_3_12)"/>
<path opacity="0.444444" d="M66.3 193H58.056L51.756 179.968V193H44.376V167.296H51.756V179.752L57.66 167.296H65.832L59.136 179.572L66.3 193ZM83.29 193L82.426 188.176H75.118L74.182 193H66.082L73.606 167.188H83.686L91.318 193H83.29ZM80.014 178.204C79.894 177.628 79.75 176.98 79.582 176.26C79.414 175.54 79.246 174.796 79.078 174.028C78.934 173.236 78.814 172.492 78.718 171.796C78.622 172.492 78.502 173.224 78.358 173.992C78.214 174.76 78.07 175.504 77.926 176.224C77.782 176.944 77.638 177.592 77.494 178.168L76.486 182.488H81.022L80.014 178.204ZM109.701 166.936V170.104C112.197 170.104 114.225 170.56 115.785 171.472C117.369 172.36 118.533 173.536 119.277 175C120.045 176.44 120.429 178.012 120.429 179.716C120.429 181.012 120.225 182.248 119.817 183.424C119.409 184.576 118.773 185.608 117.909 186.52C117.069 187.408 115.965 188.116 114.597 188.644C113.253 189.148 111.621 189.4 109.701 189.4V193.36H102.465V189.4C100.545 189.4 98.9011 189.16 97.5331 188.68C96.1651 188.176 95.0491 187.48 94.1851 186.592C93.3451 185.704 92.7211 184.672 92.3131 183.496C91.9291 182.32 91.7371 181.048 91.7371 179.68C91.7371 178.48 91.9051 177.316 92.2411 176.188C92.6011 175.036 93.1891 174.004 94.0051 173.092C94.8451 172.18 95.9491 171.46 97.3171 170.932C98.7091 170.38 100.425 170.104 102.465 170.104V166.936H109.701ZM102.465 175.396C101.457 175.396 100.701 175.6 100.197 176.008C99.6931 176.416 99.3571 176.944 99.1891 177.592C99.0451 178.24 98.9731 178.936 98.9731 179.68C98.9731 180.52 99.0211 181.276 99.1171 181.948C99.2131 182.62 99.5011 183.16 99.9811 183.568C100.485 183.952 101.313 184.144 102.465 184.144V175.396ZM109.701 184.144C110.781 184.144 111.561 183.952 112.041 183.568C112.545 183.16 112.857 182.62 112.977 181.948C113.121 181.276 113.193 180.52 113.193 179.68C113.193 178.912 113.097 178.204 112.905 177.556C112.713 176.908 112.365 176.392 111.861 176.008C111.357 175.6 110.637 175.396 109.701 175.396V184.144ZM138.515 193H123.935V167.296H138.515V172.876H131.279V176.908H137.975V182.488H131.279V187.348H138.515V193Z" fill="url(#paint2_linear_3_12)"/>
<path opacity="0.555556" d="M66.3 163H58.056L51.756 149.968V163H44.376V137.296H51.756V149.752L57.66 137.296H65.832L59.136 149.572L66.3 163ZM83.29 163L82.426 158.176H75.118L74.182 163H66.082L73.606 137.188H83.686L91.318 163H83.29ZM80.014 148.204C79.894 147.628 79.75 146.98 79.582 146.26C79.414 145.54 79.246 144.796 79.078 144.028C78.934 143.236 78.814 142.492 78.718 141.796C78.622 142.492 78.502 143.224 78.358 143.992C78.214 144.76 78.07 145.504 77.926 146.224C77.782 146.944 77.638 147.592 77.494 148.168L76.486 152.488H81.022L80.014 148.204ZM109.701 136.936V140.104C112.197 140.104 114.225 140.56 115.785 141.472C117.369 142.36 118.533 143.536 119.277 145C120.045 146.44 120.429 148.012 120.429 149.716C120.429 151.012 120.225 152.248 119.817 153.424C119.409 154.576 118.773 155.608 117.909 156.52C117.069 157.408 115.965 158.116 114.597 158.644C113.253 159.148 111.621 159.4 109.701 159.4V163.36H102.465V159.4C100.545 159.4 98.9011 159.16 97.5331 158.68C96.1651 158.176 95.0491 157.48 94.1851 156.592C93.3451 155.704 92.7211 154.672 92.3131 153.496C91.9291 152.32 91.7371 151.048 91.7371 149.68C91.7371 148.48 91.9051 147.316 92.2411 146.188C92.6011 145.036 93.1891 144.004 94.0051 143.092C94.8451 142.18 95.9491 141.46 97.3171 140.932C98.7091 140.38 100.425 140.104 102.465 140.104V136.936H109.701ZM102.465 145.396C101.457 145.396 100.701 145.6 100.197 146.008C99.6931 146.416 99.3571 146.944 99.1891 147.592C99.0451 148.24 98.9731 148.936 98.9731 149.68C98.9731 150.52 99.0211 151.276 99.1171 151.948C99.2131 152.62 99.5011 153.16 99.9811 153.568C100.485 153.952 101.313 154.144 102.465 154.144V145.396ZM109.701 154.144C110.781 154.144 111.561 153.952 112.041 153.568C112.545 153.16 112.857 152.62 112.977 151.948C113.121 151.276 113.193 150.52 113.193 149.68C113.193 148.912 113.097 148.204 112.905 147.556C112.713 146.908 112.365 146.392 111.861 146.008C111.357 145.6 110.637 145.396 109.701 145.396V154.144ZM138.515 163H123.935V137.296H138.515V142.876H131.279V146.908H137.975V152.488H131.279V157.348H138.515V163Z" fill="url(#paint3_linear_3_12)"/>
<path opacity="0.666667" d="M66.3 133H58.056L51.756 119.968V133H44.376V107.296H51.756V119.752L57.66 107.296H65.832L59.136 119.572L66.3 133ZM83.29 133L82.426 128.176H75.118L74.182 133H66.082L73.606 107.188H83.686L91.318 133H83.29ZM80.014 118.204C79.894 117.628 79.75 116.98 79.582 116.26C79.414 115.54 79.246 114.796 79.078 114.028C78.934 113.236 78.814 112.492 78.718 111.796C78.622 112.492 78.502 113.224 78.358 113.992C78.214 114.76 78.07 115.504 77.926 116.224C77.782 116.944 77.638 117.592 77.494 118.168L76.486 122.488H81.022L80.014 118.204ZM109.701 106.936V110.104C112.197 110.104 114.225 110.56 115.785 111.472C117.369 112.36 118.533 113.536 119.277 115C120.045 116.44 120.429 118.012 120.429 119.716C120.429 121.012 120.225 122.248 119.817 123.424C119.409 124.576 118.773 125.608 117.909 126.52C117.069 127.408 115.965 128.116 114.597 128.644C113.253 129.148 111.621 129.4 109.701 129.4V133.36H102.465V129.4C100.545 129.4 98.9011 129.16 97.5331 128.68C96.1651 128.176 95.0491 127.48 94.1851 126.592C93.3451 125.704 92.7211 124.672 92.3131 123.496C91.9291 122.32 91.7371 121.048 91.7371 119.68C91.7371 118.48 91.9051 117.316 92.2411 116.188C92.6011 115.036 93.1891 114.004 94.0051 113.092C94.8451 112.18 95.9491 111.46 97.3171 110.932C98.7091 110.38 100.425 110.104 102.465 110.104V106.936H109.701ZM102.465 115.396C101.457 115.396 100.701 115.6 100.197 116.008C99.6931 116.416 99.3571 116.944 99.1891 117.592C99.0451 118.24 98.9731 118.936 98.9731 119.68C98.9731 120.52 99.0211 121.276 99.1171 121.948C99.2131 122.62 99.5011 123.16 99.9811 123.568C100.485 123.952 101.313 124.144 102.465 124.144V115.396ZM109.701 124.144C110.781 124.144 111.561 123.952 112.041 123.568C112.545 123.16 112.857 122.62 112.977 121.948C113.121 121.276 113.193 120.52 113.193 119.68C113.193 118.912 113.097 118.204 112.905 117.556C112.713 116.908 112.365 116.392 111.861 116.008C111.357 115.6 110.637 115.396 109.701 115.396V124.144ZM138.515 133H123.935V107.296H138.515V112.876H131.279V116.908H137.975V122.488H131.279V127.348H138.515V133Z" fill="url(#paint4_linear_3_12)"/>
<defs>
<linearGradient id="paint0_linear_3_12" x1="0" y1="37.5" x2="183" y2="37.5" gradientUnits="userSpaceOnUse">
<stop stop-color="#536976"/>
<stop offset="1" stop-color="#292E49"/>
</linearGradient>
<linearGradient id="paint1_linear_3_12" x1="0" y1="149.5" x2="183" y2="149.5" gradientUnits="userSpaceOnUse">
<stop/>
<stop offset="1" stop-color="#434343"/>
</linearGradient>
<linearGradient id="paint2_linear_3_12" x1="91" y1="155" x2="91" y2="204" gradientUnits="userSpaceOnUse">
<stop stop-color="white"/>
<stop offset="1" stop-color="white" stop-opacity="0"/>
</linearGradient>
<linearGradient id="paint3_linear_3_12" x1="91" y1="125" x2="91" y2="174" gradientUnits="userSpaceOnUse">
<stop stop-color="white"/>
<stop offset="1" stop-color="white" stop-opacity="0"/>
</linearGradient>
<linearGradient id="paint4_linear_3_12" x1="91" y1="95" x2="91" y2="144" gradientUnits="userSpaceOnUse">
<stop stop-color="white"/>
<stop offset="1" stop-color="white" stop-opacity="0"/>
</linearGradient>
</defs>
</svg>
